<svg width="266" height="227" viewBox="0 0 266 227" fill="none" xmlns="http://www.w3.org/2000/svg">
<path d="M158.404 80.6447C158.404 95.491 146.361 107.526 131.506 107.526C116.65 107.526 104.607 95.491 104.607 80.6447C104.607 65.7985 116.65 53.7632 131.506 53.7632C146.361 53.7632 158.404 65.7985 158.404 80.6447Z" fill="white"/>
<path d="M230.135 44.8026C230.135 59.6489 218.092 71.6842 203.236 71.6842C188.38 71.6842 176.337 59.6489 176.337 44.8026C176.337 29.9563 188.38 17.9211 203.236 17.9211C218.092 17.9211 230.135 29.9563 230.135 44.8026Z" fill="white"/>
<path d="M266 116.487C266 131.333 253.957 143.368 239.101 143.368C224.245 143.368 212.202 131.333 212.202 116.487C212.202 101.641 224.245 89.6053 239.101 89.6053C253.957 89.6053 266 101.641 266 116.487Z" fill="white"/>
<path d="M266 200.118C266 214.965 253.957 227 239.101 227C224.245 227 212.202 214.965 212.202 200.118C212.202 185.272 224.245 173.237 239.101 173.237C253.957 173.237 266 185.272 266 200.118Z" fill="white"/>
<path d="M53.7978 152.329C53.7978 167.175 41.7547 179.211 26.8989 179.211C12.043 179.211 0 167.175 0 152.329C0 137.483 12.043 125.447 26.8989 125.447C41.7547 125.447 53.7978 137.483 53.7978 152.329Z" fill="white"/>
<path d="M167.371 152.329C167.371 172.124 151.313 188.171 131.506 188.171C111.698 188.171 95.6404 172.124 95.6404 152.329C95.6404 132.534 111.698 116.487 131.506 116.487C151.313 116.487 167.371 132.534 167.371 152.329Z" fill="white"/>
<path d="M68.7416 26.8816C68.7416 41.7279 56.6985 53.7632 41.8427 53.7632C26.9869 53.7632 14.9438 41.7279 14.9438 26.8816C14.9438 12.0353 26.9869 0 41.8427 0C56.6985 0 68.7416 12.0353 68.7416 26.8816Z" fill="white"/>
<path d="M119.551 98.5658H140.472V122.461H119.551V98.5658Z" fill="white"/>
<path d="M190.054 56.75L202.541 65.1674L156.915 132.767L144.428 124.35L190.054 56.75Z" fill="white"/>
<path d="M226.21 112.571L231.362 126.716L154.69 154.604L149.538 140.459L226.21 112.571Z" fill="white"/>
<path d="M225.02 187.614L219.377 201.571L143.725 171.025L149.368 157.068L225.02 187.614Z" fill="white"/>
<path d="M114.558 147.573L114.032 162.617L32.4891 159.771L33.0148 144.728L114.558 147.573Z" fill="white"/>
<path d="M125.84 138.12L113.28 146.428L43.4934 41.0599L56.0537 32.7517L125.84 138.12Z" fill="white"/>
</svg>
