<svg width="128" height="110" viewBox="0 0 128 110" fill="none" xmlns="http://www.w3.org/2000/svg">
<path d="M76.2247 39.0789C76.2247 46.2732 70.4296 52.1053 63.2809 52.1053C56.1322 52.1053 50.3371 46.2732 50.3371 39.0789C50.3371 31.8847 56.1322 26.0526 63.2809 26.0526C70.4296 26.0526 76.2247 31.8847 76.2247 39.0789Z" fill="#40254D"/>
<path d="M110.742 21.7105C110.742 28.9048 104.946 34.7368 97.7978 34.7368C90.6491 34.7368 84.8539 28.9048 84.8539 21.7105C84.8539 14.5163 90.6491 8.68421 97.7978 8.68421C104.946 8.68421 110.742 14.5163 110.742 21.7105Z" fill="#40254D"/>
<path d="M128 56.4474C128 63.6416 122.205 69.4737 115.056 69.4737C107.908 69.4737 102.112 63.6416 102.112 56.4474C102.112 49.2531 107.908 43.4211 115.056 43.4211C122.205 43.4211 128 49.2531 128 56.4474Z" fill="#40254D"/>
<path d="M128 96.9737C128 104.168 122.205 110 115.056 110C107.908 110 102.112 104.168 102.112 96.9737C102.112 89.7794 107.908 83.9474 115.056 83.9474C122.205 83.9474 128 89.7794 128 96.9737Z" fill="#40254D"/>
<path d="M25.8876 73.8158C25.8876 81.01 20.0925 86.8421 12.9438 86.8421C5.79515 86.8421 0 81.01 0 73.8158C0 66.6216 5.79515 60.7895 12.9438 60.7895C20.0925 60.7895 25.8876 66.6216 25.8876 73.8158Z" fill="#40254D"/>
<path d="M80.5393 73.8158C80.5393 83.4081 72.8125 91.1842 63.2809 91.1842C53.7493 91.1842 46.0225 83.4081 46.0225 73.8158C46.0225 64.2235 53.7493 56.4474 63.2809 56.4474C72.8125 56.4474 80.5393 64.2235 80.5393 73.8158Z" fill="#40254D"/>
<path d="M33.0787 13.0263C33.0787 20.2206 27.2835 26.0526 20.1348 26.0526C12.9862 26.0526 7.19101 20.2206 7.19101 13.0263C7.19101 5.83208 12.9862 0 20.1348 0C27.2835 0 33.0787 5.83208 33.0787 13.0263Z" fill="#40254D"/>
<path d="M57.5281 47.7632H67.5955V59.3421H57.5281V47.7632Z" fill="#40254D"/>
<path d="M91.4544 27.5L97.4634 31.5789L75.5079 64.3367L69.499 60.2578L91.4544 27.5Z" fill="#40254D"/>
<path d="M108.853 54.5498L111.332 61.4042L74.4372 74.9184L71.9582 68.0641L108.853 54.5498Z" fill="#40254D"/>
<path d="M108.28 90.9142L105.565 97.6774L69.1611 82.8756L71.8763 76.1124L108.28 90.9142Z" fill="#40254D"/>
<path d="M55.1256 71.5113L54.8727 78.8011L15.6338 77.4221L15.8868 70.1323L55.1256 71.5113Z" fill="#40254D"/>
<path d="M60.5548 66.9304L54.5107 70.9564L20.9291 19.8968L26.9732 15.8709L60.5548 66.9304Z" fill="#40254D"/>
</svg>
