<svg width="391" height="403" viewBox="0 0 391 403" fill="none" xmlns="http://www.w3.org/2000/svg">
<path fill-rule="evenodd" clip-rule="evenodd" d="M366.725 292.796H63.9507C30.6921 295.583 12.0088 339.536 44.6446 366.082C56.0667 375.372 71.4984 377.136 86.2157 377.266L367.199 379.74V403H68.0028C30.3391 403 -0.150899 372.358 0.000561862 334.659L1.11597 57.0325C1.24267 25.4973 26.8185 0 58.3241 0H383.995C387.572 0 390.471 2.90234 390.471 6.48257V269.027C390.471 282.154 379.84 292.796 366.725 292.796ZM75.7481 323.588H362.856C364.574 323.588 366.269 324.238 367.301 325.612C370.737 330.193 371.313 335.607 369.027 341.062C367.378 344.997 363.058 346.818 358.795 346.818H74.8196C70.0544 346.818 65.3133 344.323 63.9405 339.755C63.1572 337.149 62.8887 334.443 63.5375 331.451C64.6855 326.155 70.3345 323.588 75.7481 323.588ZM149.524 105.492C152 102.309 153.474 98.3085 153.474 93.9637C153.474 83.5848 145.06 75.171 134.681 75.171C124.302 75.171 115.889 83.5848 115.889 93.9637C115.889 104.343 124.302 112.756 134.681 112.756C136.896 112.756 139.021 112.373 140.994 111.67L177.326 166.563C174.869 169.811 173.186 173.677 172.55 177.887L142.407 176.834C140.276 168.795 132.95 162.87 124.241 162.87C113.862 162.87 105.448 171.284 105.448 181.663C105.448 192.042 113.862 200.456 124.241 200.456C132.636 200.456 139.745 194.952 142.156 187.355L173.194 188.439C176.149 198.986 185.833 206.72 197.324 206.72C204.581 206.72 211.117 203.635 215.693 198.706L253.728 214.073C253.711 214.404 253.702 214.737 253.702 215.073C253.702 225.451 262.116 233.865 272.495 233.865C282.874 233.865 291.288 225.451 291.288 215.073C291.288 204.694 282.874 196.28 272.495 196.28C266.198 196.28 260.624 199.377 257.214 204.132L221.115 189.547C221.936 187.068 222.381 184.418 222.381 181.663C222.381 181.121 222.364 180.582 222.33 180.048L257.103 167.392C260.503 172.234 266.129 175.399 272.495 175.399C282.874 175.399 291.288 166.985 291.288 156.606C291.288 146.227 282.874 137.813 272.495 137.813C262.116 137.813 253.702 146.227 253.702 156.606C253.702 156.88 253.708 157.153 253.72 157.424L219.452 169.897C218.652 168.396 217.704 166.986 216.628 165.687L244.081 124.986C245.17 125.182 246.292 125.285 247.438 125.285C257.817 125.285 266.231 116.871 266.231 106.492C266.231 96.1133 257.817 87.6995 247.438 87.6995C237.059 87.6995 228.645 96.1133 228.645 106.492C228.645 111.909 230.936 116.79 234.603 120.219L208.342 159.152C206.836 158.414 205.245 157.822 203.588 157.396V149.273C210.887 146.693 216.117 139.732 216.117 131.549C216.117 121.17 207.703 112.756 197.324 112.756C186.945 112.756 178.531 121.17 178.531 131.549C178.531 138.928 182.784 145.313 188.971 148.389V158.032C187.72 158.474 186.515 159.013 185.363 159.64L149.524 105.492Z" fill="#40254D"/>
</svg>
