<svg width="187" height="193" viewBox="0 0 187 193" fill="none" xmlns="http://www.w3.org/2000/svg">
<path fill-rule="evenodd" clip-rule="evenodd" d="M175.627 140.223H30.6265C14.6987 141.557 5.75112 162.607 21.3807 175.319C26.8508 179.769 34.2412 180.614 41.2894 180.676L175.855 181.86V193H32.5671C14.5296 193 -0.072267 178.325 0.00026908 160.271L0.534446 27.3133C0.595123 12.2109 12.8436 0 27.9319 0H183.898C185.611 0 187 1.38996 187 3.10456V128.839C187 135.126 181.908 140.223 175.627 140.223ZM36.2764 154.969H173.775C174.598 154.969 175.409 155.28 175.903 155.938C177.549 158.132 177.825 160.725 176.73 163.338C175.941 165.222 173.871 166.094 171.83 166.094H35.8317C33.5496 166.094 31.2791 164.899 30.6216 162.712C30.2465 161.463 30.1179 160.168 30.4286 158.734C30.9784 156.198 33.6838 154.969 36.2764 154.969ZM71.6082 50.5209C72.7939 48.9966 73.5 47.0807 73.5 45C73.5 40.0294 69.4706 36 64.5 36C59.5294 36 55.5 40.0294 55.5 45C55.5 49.9706 59.5294 54 64.5 54C65.5605 54 66.5782 53.8166 67.523 53.4797L84.923 79.7683C83.7464 81.3241 82.9401 83.1756 82.6354 85.1915L68.2001 84.6874C67.1794 80.8374 63.6711 78 59.5 78C54.5294 78 50.5 82.0294 50.5 87C50.5 91.9706 54.5294 96 59.5 96C63.5203 96 66.925 93.364 68.0798 89.726L82.9439 90.245C84.3593 95.2959 88.9971 99 94.5 99C97.9753 99 101.106 97.5227 103.297 95.1618L121.513 102.521C121.504 102.68 121.5 102.839 121.5 103C121.5 107.971 125.529 112 130.5 112C135.471 112 139.5 107.971 139.5 103C139.5 98.0294 135.471 94 130.5 94C127.484 94 124.815 95.4833 123.182 97.7603L105.894 90.7756C106.287 89.5884 106.5 88.3191 106.5 87C106.5 86.7401 106.492 86.4822 106.475 86.2265L123.129 80.1652C124.757 82.4842 127.451 84 130.5 84C135.471 84 139.5 79.9706 139.5 75C139.5 70.0294 135.471 66 130.5 66C125.529 66 121.5 70.0294 121.5 75C121.5 75.1313 121.503 75.2619 121.508 75.3918L105.097 81.365C104.714 80.6462 104.26 79.9711 103.745 79.3488L116.892 59.8568C117.414 59.9509 117.951 60 118.5 60C123.471 60 127.5 55.9706 127.5 51C127.5 46.0294 123.471 42 118.5 42C113.529 42 109.5 46.0294 109.5 51C109.5 53.5939 110.597 55.9316 112.353 57.574L99.7767 76.2194C99.0555 75.8658 98.2937 75.5823 97.5 75.3781V71.4879C100.996 70.2524 103.5 66.9187 103.5 63C103.5 58.0294 99.4706 54 94.5 54C89.5294 54 85.5 58.0294 85.5 63C85.5 66.5337 87.5366 69.5918 90.5 71.0645V75.6828C89.9008 75.8946 89.3234 76.1527 88.7721 76.4527L71.6082 50.5209Z" fill="white"/>
</svg>
